<?xml version="1.0" standalone="no"?><!DOCTYPE svg PUBLIC "-//W3C//DTD SVG 1.1//EN" "http://www.w3.org/Graphics/SVG/1.1/DTD/svg11.dtd"><svg t="1628332266072" class="icon" viewBox="0 0 1152 1024" version="1.1" xmlns="http://www.w3.org/2000/svg" p-id="2271" xmlns:xlink="http://www.w3.org/1999/xlink" width="225" height="200"><defs><style type="text/css"></style></defs><path d="M579.93792 1008c-270.08 0-489.856-225.664-489.856-503.232 0-19.968 15.808-36.16 35.264-36.16 19.456 0 35.2 16.192 35.2 36.16 0 237.568 188.16 430.848 419.328 430.848 139.52 0 269.568-70.976 347.712-190.016a34.816 34.816 0 0 1 49.024-9.792 36.992 36.992 0 0 1 9.536 50.368c-91.328 139.008-243.2 221.824-406.272 221.824z m454.656-467.008a35.776 35.776 0 0 1-35.264-36.224c0-237.568-188.096-430.784-419.328-430.784-134.4 0-261.504 66.816-340.224 178.944a34.56 34.56 0 0 1-49.28 8.128 36.864 36.864 0 0 1-7.872-50.56C274.52992 79.616 423.00992 1.408 579.87392 1.408c270.08 0 489.92 225.792 489.92 503.296a35.776 35.776 0 0 1-35.2 36.224z" fill="#086FF7" p-id="2272"></path><path d="M35.29792 649.6a34.56 34.56 0 0 1-17.28-4.736 36.8 36.8 0 0 1-13.376-49.408l81.6-147.584a35.392 35.392 0 0 1 25.216-17.92 34.24 34.24 0 0 1 29.312 9.088l127.68 120.128c14.336 13.568 15.296 36.48 2.112 51.2a34.56 34.56 0 0 1-49.92 2.176L125.72992 523.072l-59.712 108.16a35.072 35.072 0 0 1-30.656 18.368z m1003.392-68.416a34.24 34.24 0 0 1-23.68-9.408l-122.688-114.56a37.056 37.056 0 0 1-2.368-51.2 34.688 34.688 0 0 1 49.92-2.432l89.856 83.84 55.872-101.888a34.688 34.688 0 0 1 48.064-13.824c16.96 9.792 23.04 32 13.44 49.408l-77.504 141.568a35.328 35.328 0 0 1-30.912 18.56z" fill="#086FF7" p-id="2273"></path></svg>